<?xml version="1.0" standalone="no"?>
<!DOCTYPE svg PUBLIC "-//W3C//DTD SVG 20010904//EN"
 "http://www.w3.org/TR/2001/REC-SVG-20010904/DTD/svg10.dtd">
<svg version="1.0" xmlns="http://www.w3.org/2000/svg"
 width="300.000000pt" height="106.000000pt" viewBox="0 0 300.000000 106.000000"
 preserveAspectRatio="xMidYMid meet">
<metadata>
Created by potrace 1.10, written by Peter Selinger 2001-2011
</metadata>
<g transform="translate(0.000000,106.000000) scale(0.100000,-0.100000)"
fill="#000000" stroke="none">
<path d="M50 1050 c-8 -5 -10 -10 -5 -10 6 0 17 5 25 10 8 5 11 10 5 10 -5 0
-17 -5 -25 -10z"/>
<path d="M70 1041 c-13 -11 -29 -17 -34 -14 -5 3 -6 1 -2 -6 4 -6 3 -17 -3
-24 -13 -17 -33 -69 -23 -64 4 3 6 -180 5 -406 -1 -227 0 -422 3 -434 8 -32
50 -70 84 -76 50 -10 899 -13 893 -3 -4 5 0 6 6 1 18 -10 641 -13 641 -3 0 5
48 6 108 4 172 -9 462 -13 462 -7 0 9 393 7 407 -2 6 -4 14 -3 18 2 3 6 51 8
118 6 121 -5 179 5 204 35 9 10 19 17 22 15 3 -1 7 18 8 43 4 106 2 805 -2
812 -2 4 0 21 4 38 8 26 7 30 -7 24 -15 -5 -15 -4 -3 11 8 10 11 20 7 24 -3 3
-6 1 -6 -5 0 -19 -14 -13 -33 13 -17 24 -17 24 0 19 15 -5 16 -4 3 5 -10 7
-446 10 -1435 10 -1379 1 -1421 0 -1445 -18z m2865 -34 l27 -22 -1 -447 c0
-245 -3 -452 -6 -460 -16 -40 13 -39 -1456 -39 -1462 1 -1439 0 -1454 40 -3 8
-6 215 -6 459 l0 444 22 24 22 24 1413 0 1413 0 26 -23z"/>
<path d="M595 846 c-40 -17 -59 -55 -52 -101 5 -30 3 -36 -8 -31 -19 7 -19 -3
0 -24 14 -16 14 -20 -2 -49 l-18 -31 -137 0 c-161 0 -166 -2 -167 -86 0 -48 2
-54 14 -44 9 7 15 29 15 51 0 22 5 39 11 39 5 0 8 3 6 8 -3 4 53 5 123 2 70
-3 126 -2 123 3 -2 4 0 7 6 7 15 0 70 59 61 65 -12 8 -2 32 16 39 10 4 12 2 8
-6 -5 -8 -2 -9 9 -5 10 4 17 2 17 -4 0 -6 7 -8 16 -5 8 3 12 2 9 -4 -3 -6 -18
-10 -33 -10 -21 0 -24 -2 -12 -10 11 -7 11 -10 2 -10 -7 0 -11 -4 -8 -9 3 -5
-1 -14 -10 -21 -8 -7 -13 -19 -10 -26 3 -8 0 -13 -7 -11 -7 1 -11 -4 -10 -10
4 -16 -9 -17 -24 -2 -8 8 -13 7 -18 -2 -5 -8 -4 -10 3 -5 7 4 12 3 12 -3 0 -5
-8 -11 -17 -13 -13 -2 -18 -13 -18 -35 0 -17 3 -29 8 -26 4 2 7 -1 7 -6 0 -16
-20 -13 -26 2 -3 8 -21 14 -42 15 -20 0 -48 4 -62 7 -17 5 -21 4 -12 -3 11 -7
8 -11 -12 -16 -14 -3 -26 -11 -26 -16 0 -15 -17 -12 -34 6 -9 8 -16 11 -16 5
0 -6 -5 -11 -11 -11 -6 0 -8 9 -4 21 5 15 3 20 -6 17 -8 -3 -16 -15 -17 -29
-2 -13 -10 -31 -17 -39 -9 -10 -13 -36 -12 -75 2 -57 3 -60 27 -60 23 0 25 4
28 45 3 69 12 110 22 110 6 0 10 -13 10 -29 0 -31 24 -59 35 -41 3 6 11 8 16
5 12 -8 12 18 -1 31 -21 21 13 44 70 46 l54 3 -2 -81 c-3 -64 0 -83 13 -94 10
-8 19 -10 25 -4 14 14 23 191 10 199 -5 3 -10 14 -10 25 0 14 9 19 40 22 45 4
51 -15 7 -20 -32 -4 -33 -9 -8 -36 19 -21 19 -22 1 -114 -10 -52 -24 -99 -30
-107 -9 -10 9 -13 94 -14 109 -2 116 1 116 47 0 13 -3 12 -14 -4 -14 -18 -15
-18 -25 9 -6 15 -14 40 -17 54 -4 15 -24 67 -46 117 l-38 90 16 43 c15 39 20
43 50 43 26 0 34 4 34 18 0 20 -84 67 -102 56 -11 -7 -29 16 -22 28 3 4 21 8
40 8 19 0 34 5 34 11 0 7 -15 10 -40 7 -22 -2 -40 -2 -40 0 0 17 28 46 56 58
19 8 32 19 29 24 -8 13 -13 12 -50 -4z m-8 -369 c1 -11 1 -18 0 -16 -2 2 -8
11 -15 20 -9 12 -9 16 1 16 7 0 14 -9 14 -20z m18 -38 c-5 -16 -4 -19 6 -14 9
6 11 4 6 -8 -3 -8 1 -21 9 -27 15 -13 20 -45 5 -36 -5 4 -11 2 -13 -3 -1 -5
-9 -11 -17 -13 -17 -4 -25 60 -11 96 11 31 24 35 15 5z m57 -149 c3 -21 -1
-25 -25 -26 -21 -1 -27 3 -25 15 2 9 11 15 21 13 10 -2 17 4 17 13 0 25 -25
17 -57 -20 -42 -47 -55 -45 -36 5 10 25 19 36 24 29 5 -9 13 -7 30 5 28 19 47
6 51 -34z"/>
<path d="M250 832 c1 -15 38 -50 60 -57 l24 -7 -25 30 c-22 28 -59 49 -59 34z"/>
<path d="M380 797 c-19 -12 -41 -28 -48 -37 -10 -11 -15 -12 -18 -2 -3 6 -14
12 -25 12 -18 0 -18 -2 -4 -24 24 -36 89 -62 120 -48 36 16 32 35 -5 27 -36
-8 -40 7 -5 23 19 9 25 19 25 42 0 16 -1 30 -2 29 -2 0 -19 -10 -38 -22z m-5
-37 c-3 -5 -16 -15 -28 -21 -19 -9 -19 -8 3 10 28 23 34 26 25 11z"/>
<path d="M914 753 c3 -16 11 -58 17 -95 l11 -68 34 0 c30 0 34 4 43 38 6 20
11 45 11 55 0 9 5 17 10 17 6 0 10 -18 10 -39 0 -59 8 -71 45 -71 l32 0 12 73
c7 39 14 82 18 95 4 19 2 22 -18 19 -21 -4 -25 -11 -31 -63 -4 -32 -4 -67 -1
-78 3 -11 1 -16 -5 -12 -6 3 -16 31 -22 61 -11 54 -12 55 -45 55 -32 0 -34 -2
-41 -45 -9 -65 -22 -64 -29 2 -9 78 -8 76 -34 80 -20 3 -22 0 -17 -24z"/>
<path d="M1200 686 c0 -89 1 -96 20 -96 18 0 20 7 20 85 0 47 1 88 3 93 1 4
-8 8 -20 10 -22 3 -23 1 -23 -92z"/>
<path d="M1300 686 l0 -96 70 0 c63 0 70 2 70 20 0 17 -7 20 -51 20 l-50 0 2
73 c2 67 1 72 -19 75 -21 3 -22 0 -22 -92z"/>
<path d="M1714 765 c-16 -6 -34 -18 -40 -26 -33 -42 -19 -111 27 -134 41 -22
73 -18 108 11 78 65 -1 189 -95 149z m76 -56 c27 -49 -20 -96 -69 -69 -24 12
-29 58 -9 78 20 20 66 15 78 -9z"/>
<path d="M1890 686 c0 -96 0 -96 25 -96 24 0 25 2 20 43 -15 110 -15 109 1 96
16 -13 19 -23 4 -14 -17 11 -11 -3 27 -65 28 -44 44 -60 60 -60 22 0 23 3 23
94 0 89 -1 95 -20 93 -18 -1 -20 -8 -20 -65 0 -39 4 -61 10 -57 6 3 10 2 10
-4 0 -27 -18 -14 -38 27 -28 60 -51 88 -79 97 -23 6 -23 5 -23 -89z"/>
<path d="M2190 753 c0 -18 6 -23 26 -23 14 0 34 5 45 10 29 16 24 7 -31 -56
-27 -31 -50 -65 -50 -76 0 -16 9 -18 78 -18 70 0 78 2 79 20 1 16 -6 19 -49
22 l-50 3 46 50 c25 28 46 59 46 70 0 18 -7 20 -70 20 -66 0 -70 -1 -70 -22z"/>
<path d="M1486 754 c-33 -32 -16 -69 40 -89 60 -20 57 -39 -5 -33 -48 5 -51 4
-51 -18 0 -22 4 -24 50 -24 41 0 56 5 76 25 24 24 25 28 11 48 -8 12 -33 28
-56 35 -55 19 -52 32 9 32 43 0 50 3 50 20 0 18 -7 20 -54 20 -36 0 -60 -5
-70 -16z"/>
<path d="M2396 749 c-21 -16 -26 -29 -26 -64 0 -36 5 -48 31 -69 64 -54 149
-16 149 66 0 78 -90 117 -154 67z m108 -41 c17 -27 -4 -72 -35 -76 -47 -5 -79
54 -47 86 17 17 69 11 82 -10z"/>
<path d="M2626 744 c-56 -57 -15 -154 65 -154 39 0 78 29 88 66 11 40 7 60
-22 92 -30 33 -95 31 -131 -4z m102 -26 c31 -31 4 -88 -42 -88 -37 0 -61 61
-34 88 15 15 61 15 76 0z"/>
<path d="M540 599 c0 -5 5 -7 10 -4 6 3 10 8 10 11 0 2 -4 4 -10 4 -5 0 -10
-5 -10 -11z"/>
<path d="M920 389 c0 -84 3 -110 13 -107 8 3 13 37 15 111 2 91 0 107 -13 107
-13 0 -15 -18 -15 -111z"/>
<path d="M988 390 c2 -60 7 -110 13 -110 5 0 9 39 10 88 1 93 11 81 24 -30 5
-47 9 -56 25 -55 17 1 19 12 22 109 2 90 1 108 -11 106 -11 -2 -14 -20 -12
-77 2 -50 -1 -71 -8 -66 -6 3 -11 21 -11 38 0 18 -3 49 -6 70 -5 29 -11 37
-28 37 -20 0 -21 -4 -18 -110z"/>
<path d="M1247 493 c-11 -10 -8 -162 3 -184 12 -21 50 -25 68 -7 17 17 17 201
0 195 -9 -2 -13 -30 -14 -84 -1 -45 -5 -86 -9 -92 -16 -26 -25 6 -25 90 0 82
-5 100 -23 82z"/>
<path d="M1370 393 l0 -108 32 1 c22 1 34 6 36 17 3 13 -3 16 -20 15 -23 -3
-23 -2 -19 90 3 79 1 92 -13 92 -14 0 -16 -16 -16 -107z"/>
<path d="M1488 486 c-22 -22 -16 -175 7 -192 21 -15 55 -2 56 21 4 85 1 110
-14 113 -19 4 -33 -18 -18 -28 15 -8 11 -79 -4 -83 -6 -1 -11 30 -13 76 -2 64
0 77 13 77 8 0 15 -4 15 -10 0 -5 7 -10 15 -10 9 0 12 6 8 18 -12 33 -42 41
-65 18z"/>
<path d="M1600 498 c-1 -2 -2 -49 -3 -105 l-2 -101 33 -4 c25 -3 32 0 32 13 0
12 -6 16 -20 12 -18 -5 -20 0 -20 41 0 39 3 46 20 46 11 0 20 7 20 16 0 11 -6
14 -20 9 -16 -5 -20 -2 -20 19 0 19 5 26 19 26 10 0 21 7 25 15 4 12 -3 15
-29 15 -19 0 -35 -1 -35 -2z"/>
<path d="M1790 498 c-4 -32 -1 -208 4 -208 3 0 9 0 14 0 4 0 7 47 7 105 0 77
-3 105 -12 105 -7 0 -13 -1 -13 -2z"/>
<path d="M1852 393 c2 -80 6 -108 17 -111 12 -4 13 10 8 79 -6 96 8 88 20 -12
7 -56 11 -64 31 -67 22 -3 22 -2 22 107 0 95 -2 111 -16 111 -14 0 -16 -12
-13 -79 5 -99 -6 -97 -16 4 -6 71 -8 75 -31 75 l-25 0 3 -107z"/>
<path d="M2070 390 c0 -91 3 -110 15 -110 12 0 15 16 16 83 1 94 6 92 16 -8 7
-63 10 -70 31 -71 22 -1 22 1 22 107 0 91 -2 109 -15 109 -13 0 -15 -13 -14
-75 2 -102 -8 -106 -17 -6 -6 77 -8 81 -30 81 -24 0 -24 -1 -24 -110z"/>
<path d="M2232 438 c-24 -143 -25 -161 -11 -156 8 2 15 21 17 41 2 28 8 37 22
37 14 0 20 -9 22 -37 2 -20 9 -39 17 -41 15 -5 14 6 -11 151 -9 52 -15 67 -29
67 -13 0 -19 -14 -27 -62z m38 -18 c0 -22 -4 -40 -10 -40 -11 0 -13 39 -4 64
10 26 14 19 14 -24z"/>
<path d="M2326 493 c-12 -12 -6 -23 14 -23 17 0 20 -8 22 -92 2 -62 7 -93 16
-96 9 -3 12 20 12 92 0 89 1 96 20 96 11 0 20 6 20 14 0 10 -14 14 -49 14 -27
1 -52 -2 -55 -5z"/>
<path d="M2467 493 c-4 -3 -7 -44 -7 -89 0 -87 12 -114 49 -114 34 0 42 24 39
117 -4 112 -22 109 -24 -5 -1 -46 -4 -86 -7 -89 -18 -17 -27 17 -27 98 0 82
-5 100 -23 82z"/>
<path d="M2590 389 c0 -84 3 -110 13 -106 7 2 11 17 9 33 -2 28 -2 28 13 10 8
-11 15 -26 15 -33 0 -7 7 -13 15 -13 18 0 18 5 4 32 -8 14 -8 23 0 31 12 12
15 116 3 134 -4 7 -22 14 -40 18 l-32 5 0 -111z m50 27 c0 -49 -12 -80 -23
-59 -7 15 5 113 14 113 5 0 9 -24 9 -54z"/>
<path d="M2710 395 l0 -105 35 0 c24 0 35 5 35 15 0 9 -8 14 -21 12 -19 -2
-22 3 -22 38 0 34 3 41 21 43 12 2 22 10 22 19 0 11 -6 14 -25 9 -22 -6 -24
-3 -22 16 3 15 12 24 26 26 32 5 20 26 -17 29 l-32 3 0 -105z"/>
<path d="M1120 390 l0 -100 34 0 c41 0 46 11 51 100 5 74 -10 100 -57 100
l-28 0 0 -100z m58 20 c4 -61 -4 -100 -18 -100 -6 0 -10 35 -10 81 0 60 3 80
13 77 7 -3 13 -27 15 -58z"/>
<path d="M2031 474 c0 -11 3 -14 6 -6 3 7 2 16 -1 19 -3 4 -6 -2 -5 -13z"/>
<path d="M408 442 c-23 -3 -26 -6 -19 -21 12 -22 4 -34 -38 -51 -24 -10 -38
-25 -52 -57 -11 -26 -29 -48 -44 -55 -14 -6 -24 -18 -23 -26 4 -22 26 -26 24
-5 -1 15 8 18 60 21 54 3 61 5 57 21 -8 30 16 35 29 7 6 -14 15 -26 20 -26 11
0 10 7 -2 31 -8 14 -7 26 3 46 17 34 30 110 20 115 -5 2 -20 2 -35 0z m12 -77
c0 -11 -78 -85 -89 -85 -15 0 -14 39 2 53 19 19 87 43 87 32z"/>
</g>
</svg>
